<svg class="i-preloader" width="357" height="230" viewBox="0 0 357 230" fill="none" xmlns:xlink="http://www.w3.org/1999/xlink" xmlns="http://www.w3.org/2000/svg">
<path id="jp1" d="M113.7 228.9C87 228.9 54 188 10 100.3L14.2 98.2002C56.7 183 89.3 224.3 113.7 224.3C113.8 224.3 113.9 224.3 114 224.3C130.9 224.1 139.6 212.6 143.9 203.1L148.2 205C141.3 220.2 129.2 228.8 114.1 229C114 228.9 113.8 228.9 113.7 228.9Z" fill="#7417EA"/>
<path d="M327.6 157.5L323.2 155.9C324.5 152.3 326.7 146.8 329.2 140.4C334.3 127.5 341.2 109.8 346 95.0003C354.7 68.1003 354 44.0002 344.1 27.0002C337.4 15.6003 327 8.10025 314 5.50025C291.8 1.00025 265.3 20.3003 235.3 62.8003L231.5 60.1003C262.7 16.0003 290.7 -3.89975 315 0.90025C329.3 3.80025 340.8 12.0002 348.2 24.6003C358.8 42.7003 359.7 68.3003 350.5 96.4003C345.6 111.4 338.7 129.1 333.6 142.1C331.1 148.4 328.9 153.9 327.6 157.5Z" fill="#7417EA"/>
<path d="M194.899 228.8C175.999 228.8 156.199 220.5 145.899 207.9L145.799 207.7C131.799 187.2 85.8993 119.8 80.8993 112.9C71.6993 100.2 56.7993 92.6 41.0993 92.6C31.1993 92.6 21.5993 95.6 13.3993 101.2L11.0993 102.8L9.29931 98.8C-1.00069 76.2 -2.90069 50.3 4.29931 31.2C9.09931 18.6 17.5993 9.19999 29.0993 3.99999C75.5993 -17 126.299 51.4 128.399 54.4L237.499 206.8L236.599 208.1C228.299 220.5 214.699 227.8 198.099 228.7C196.999 228.8 195.999 228.8 194.899 228.8ZM149.599 205C159.599 217.1 179.399 224.9 197.799 224C208.099 223.5 222.199 220.1 231.699 206.8L124.599 57.1C123.699 56 73.8993 -11.1 30.9993 8.29999C20.5993 13 13.0993 21.2 8.69931 32.8C1.99931 50.5 3.69931 74.6 13.0993 95.7C21.4993 90.5 31.1993 87.8 41.0993 87.8C58.2993 87.8 74.5993 96.1 84.6993 110.1C89.6993 117.1 135.599 184.4 149.599 205Z" fill="#7417EA"/>
<path d="M270.4 229.3C255.3 229.3 242.6 221.9 231.5 206.6L235.3 203.8C245.4 217.8 256.9 224.6 270.4 224.6C290.7 224.6 303.5 208.6 322 159.2C304.9 159.1 288.8 150.8 278.7 136.9C276.3 133.6 259.7 107.4 246.3 86.3003C240 76.4003 234 66.9003 232.1 63.9003H232L231.3 62.8003C214.4 35.1003 200.3 15.5003 172.7 16.8003C145.1 18.1003 132.6 45.0003 128.5 56.6003L124.1 55.0003C128.5 42.6003 142 13.6003 172.5 12.1003C202.6 10.6003 217.5 31.2003 235.3 60.3003H235.2C236 61.3003 237.3 63.3003 239.6 67.1003C242.3 71.3003 246 77.2003 250.1 83.7003C262.7 103.6 280 130.9 282.3 134.1C291.5 146.8 306.4 154.4 322.1 154.4C323.1 154.4 324.1 154.3 325.1 154.3L328.7 154.1L327.5 157.5C310.1 205.1 296.4 229.3 270.4 229.3Z" fill="#7417EA"/>

<style>
.i-preloader path {
    stroke-dasharray: 1000;
    stroke-dashoffset: 1000;
    animation: dash 5s linear alternate infinite;
}
#jp1 {
    opacity: 0.2;
    animation: in 2s infinite;
    stroke-width: 3px;
    stroke: red;
}

@keyframes dash {
  from {
    stroke-dashoffset: 822;
  }
  to {
    stroke-dashoffset: 0;
  }
}

@keyframes in {
    from {
        opacity: 0;
    }
    to {
        opacity: 1;
    }
}

</style>
</svg>
