<svg width="358" height="235" viewBox="0 0 358 235" fill="none" xmlns="http://www.w3.org/2000/svg">
<path id="preload-icon-p1" d="M14 105.5C58 193.2 90 231.9 116.7 231.9C116.8 231.9 117 231.9 117.1 232C132.2 231.8 142.6 226.2 149.5 211M14 105.5L16.3993 104.2C24.5993 98.6 34.1993 95.6 44.0993 95.6C59.7993 95.6 74.6993 103.2 83.8993 115.9C88.8993 122.8 134.799 190.2 148.799 210.7L148.899 210.9C159.199 223.5 178.999 231.8 197.899 231.8C198.999 231.8 199.999 231.8 201.099 231.7C217.699 230.8 231.299 223.5 239.599 211.1L240.499 209.8L131.399 57.4C129.299 54.4 78.5993 -14 32.0993 6.99999C20.5993 12.2 12.0993 21.6 7.29931 34.2C0.0993094 53.3 1.99931 79.2 12.2993 101.8L14 105.5ZM325 162C326.3 158.4 329.7 149.8 332.2 143.4C337.3 130.5 344.2 112.8 349 98.0003C357.7 71.1003 357 47.0002 347.1 30.0002C340.4 18.6003 330 11.1003 317 8.50025C294.8 4.00025 266.1 25.5 236.1 68M240 209C250.1 223 259.9 227.6 273.4 227.6C293.7 227.6 306.5 211.6 325 162.2C307.9 162.1 291.8 153.8 281.7 139.9C279.3 136.6 262.7 110.4 249.3 89.3003C243 79.4003 237 69.9003 235.1 66.9003L234.3 65.8003C217.4 38.1003 203.3 18.5003 175.7 19.8003C148.1 21.1003 136.1 46.4 132 58" stroke="#7417EA" stroke-width="6"/>
<style>
#preload-icon-p1 {
    stroke-dasharray: 400;
    stroke-dashoffset: 3000;
    animation: draw 4s linear infinite both alternate;
}

@keyframes draw {
    to {
        stroke-dashoffset: 1000
    }
}
</style>
</svg>
